<svg xmlns="http://www.w3.org/2000/svg" xmlns:xlink="http://www.w3.org/1999/xlink" width="60" height="60" viewBox="0 0 60 60">
  <defs>
    <style>
      .cls-1 {
        clip-path: url(#clip-IG_hover);
      }

      .cls-2 {
        fill: #cc2424;
      }

      .cls-3 {
        fill: #fff;
      }
    </style>
    <clipPath id="clip-IG_hover">
      <rect width="60" height="60"/>
    </clipPath>
  </defs>
  <g id="IG_hover" class="cls-1">
    <g id="IG_Icon">
      <path id="路径_7" data-name="路径 7" class="cls-2" d="M60,46.3A13.694,13.694,0,0,1,46.3,60H13.7A13.694,13.694,0,0,1,0,46.3V13.711A13.713,13.713,0,0,1,13.708,0H46.09A13.9,13.9,0,0,1,60,13.91Z"/>
      <g id="组_2" data-name="组 2" transform="translate(8.216 8.228)">
        <path id="路径_8" data-name="路径 8" class="cls-3" d="M100.645,70.6H83.923A13.427,13.427,0,0,0,70.5,84.023v16.711a13.409,13.409,0,0,0,13.423,13.411h16.711a13.407,13.407,0,0,0,13.411-13.411V84.023a13.392,13.392,0,0,0-13.4-13.423Zm9.23,28.525a10.836,10.836,0,0,1-10.839,10.839h-13.5a10.836,10.836,0,0,1-10.84-10.839V85.62a10.836,10.836,0,0,1,10.84-10.839H99.037A10.843,10.843,0,0,1,109.876,85.62Z" transform="translate(-70.5 -70.6)"/>
        <path id="路径_9" data-name="路径 9" class="cls-3" d="M174.686,159a11.553,11.553,0,1,0,11.386,11.552A11.553,11.553,0,0,0,174.686,159Zm0,18.493a6.953,6.953,0,1,1,6.852-6.952A6.953,6.953,0,0,1,174.686,177.493Z" transform="translate(-152.309 -148.698)"/>
        <path id="路径_10" data-name="路径 10" class="cls-3" d="M332.88,135.5a2.89,2.89,0,1,1-.843-2.05,2.89,2.89,0,0,1,.843,2.05Z" transform="translate(-296.931 -125.31)"/>
      </g>
    </g>
  </g>
</svg>
